# xmcd
#
# Track frame offsets:
#	150
#	15454
#	27468
#	42437
#	59128
#	71786
#	87821
#	102892
#	120587
#	133544
#	151690
#	164092
#	180921
#	198311
#	214388
#	234398
#	251466
#
# Disc length: 3573 seconds
#
# Revision: 5
# Processed by: cddbd v1.5.1PL2 Copyright (c) Steve Scherf et al.
# Submitted via: EasyCDDAExtractor 6.5.9.5
#
DISCID=e80df311
DTITLE=Eilleen Shania Twain - The Complete Limelight Sessions
DYEAR=2001
DGENRE=Country
TTITLE0=It's Alright
TTITLE1=Love
TTITLE2=All Fired Up, No Place To Go
TTITLE3=The Heart Is Blind
TTITLE4=For The Love
TTITLE5=Wild And Wicked
TTITLE6=I Ain't Gonna Eat Out My Heart Anymore
TTITLE7=Send It With Love
TTITLE8=Half Breed
TTITLE9=Hate To Love
TTITLE10=Bite My Lip
TTITLE11=Two Hearts One Love
TTITLE12=Rhythm Made Me Do It
TTITLE13=Luv Eyes
TTITLE14=Lost My Heart
TTITLE15=Don't Give Me That
TTITLE16=It's Alright (Edited Club Mix)
EXTD=YEAR: 2001
EXTT0=
EXTT1=
EXTT2=
EXTT3=
EXTT4=
EXTT5=
EXTT6=
EXTT7=
EXTT8=
EXTT9=
EXTT10=
EXTT11=
EXTT12=
EXTT13=
EXTT14=
EXTT15=
EXTT16=
PLAYORDER=
